<?xml version="1.0" encoding="UTF-8"?>
<svg width="60px" height="60px" viewBox="0 0 60 60" version="1.1" xmlns="http://www.w3.org/2000/svg" xmlns:xlink="http://www.w3.org/1999/xlink">
    <!-- Generator: sketchtool 49 (51002) - http://www.bohemiancoding.com/sketch -->
    <title>4F9F00EB-6296-45B3-8CCC-4D4CC0785367</title>
    <desc>Created with sketchtool.</desc>
    <defs></defs>
    <g id="Hi-Fi" stroke="none" stroke-width="1" fill="none" fill-rule="evenodd">
        <g id="Page-Footer" transform="translate(-1080.000000, -80.000000)" fill="#FFFFFF">
            <g id="Footer">
                <g id="Icons" transform="translate(1080.000000, 80.000000)">
                    <path d="M60,30 C60,46.566 46.566,60 30,60 C13.434,60 0,46.566 0,30 C0,13.434 13.434,0 30,0 C46.566,0 60,13.434 60,30 Z M41.5254,29.8008 L31.3659,12.3153 C30.9624,11.6133 30.0639,11.3778 29.3679,11.7828 L28.1784,12.4743 C27.4749,12.8838 27.2409,13.7808 27.6459,14.4783 L37.8069,31.9608 L41.5254,29.8008 Z M38.22075,32.68365 L40.37625,36.38715 L44.09775,34.22565 L41.93925,30.52215 L38.22075,32.68365 Z M14.7597,36.22845 L18.5922,38.46495 L27.5742,23.09745 L23.7417,20.85795 L14.7597,36.22845 Z M12.4278,44.0625 C12.3933,44.1915 12.4458,44.3205 12.5628,44.3895 C12.6738,44.454 12.8193,44.4375 12.9078,44.343 L18.1113,39.2925 L14.2788,37.0485 L12.4278,44.0625 Z M24.0528,20.32035 L27.8853,22.56435 L29.1738,20.35485 C29.5833,19.65735 29.3493,18.76035 28.6518,18.35085 L27.3513,17.58885 C26.6538,17.17935 25.7523,17.41335 25.3473,18.11685 L24.0528,20.32035 Z M43.5351,35.36715 C42.9321,35.71065 42.0276,36.24615 41.4966,36.56265 C40.5006,37.15365 41.2671,38.89965 41.4966,39.27465 C42.7851,41.43765 44.1156,41.13315 45.1176,42.66315 C45.6681,43.50165 45.5151,43.87065 45.6861,44.14965 C45.7551,44.25015 45.9726,44.35065 46.0551,44.23365 C47.6016,42.09465 47.1486,38.41515 46.0236,36.77265 C45.5031,36.00615 44.5551,34.78665 43.5351,35.36715 Z M48.95505,32.1153 L48.95355,32.1153 L48.95355,27.8328 L41.27805,27.8328 L43.61055,32.1153 L48.95505,32.1153 Z M36.9258,32.1153 L34.5468,27.8328 L25.3653,27.8328 L22.9863,32.1153 L36.9258,32.1153 Z M16.4172,32.1153 L18.9552,27.8328 L10.9917,27.8328 L10.9917,32.1153 L16.4172,32.1153 Z" id="App-Store"></path>
                </g>
            </g>
        </g>
    </g>
</svg>