<?xml version="1.0" encoding="UTF-8"?>
<svg width="215px" height="196px" viewBox="0 0 215 196" version="1.1" xmlns="http://www.w3.org/2000/svg" xmlns:xlink="http://www.w3.org/1999/xlink">
    <!-- Generator: sketchtool 49 (51002) - http://www.bohemiancoding.com/sketch -->
    <title>21002CDE-C9D4-4F4B-9976-BFE041DC03E3</title>
    <desc>Created with sketchtool.</desc>
    <defs>
        <linearGradient x1="0%" y1="100%" x2="100%" y2="0%" id="linearGradient-1">
            <stop stop-color="#0A3565" offset="0%"></stop>
            <stop stop-color="#1782D9" offset="100%"></stop>
        </linearGradient>
    </defs>
    <g id="Hi-Fi" stroke="none" stroke-width="1" fill="none" fill-rule="evenodd">
        <g id="Landing-Page" transform="translate(-445.000000, -1261.000000)" fill="url(#linearGradient-1)">
            <g id="Section" transform="translate(0.000000, 1040.000000)">
                <g id="Steps" transform="translate(120.000000, 200.000000)">
                    <g id="Pay" transform="translate(320.000000, 0.000000)">
                        <path d="M201.4492,168.3044 C203.3872,167.5274 205.2832,166.7354 207.2022,166.0074 C209.3632,165.1884 211.5592,164.6614 213.9062,165.2004 C219.2112,166.4214 221.5372,171.5644 218.9132,176.3364 C217.9592,178.0704 216.6152,179.4544 214.9562,180.4894 C204.2212,187.1784 193.7032,194.2224 182.5852,200.2844 C170.5272,206.8594 157.5362,210.9904 144.4412,214.8304 C140.3212,216.0394 136.2092,215.0904 132.1152,214.4054 C124.7862,213.1784 117.3752,212.4194 110.1352,210.6874 C101.5702,208.6384 93.8262,204.5964 86.1742,200.4334 C81.4712,197.8764 76.8332,197.3004 71.7552,199.0554 C66.9052,200.7314 61.9532,202.1134 57.0952,203.6084 C56.5132,203.1434 56.7312,202.6104 56.7302,202.1614 C56.7162,189.1304 56.7202,176.0994 56.7102,163.0694 C56.7092,162.1934 56.7012,161.4834 57.6732,160.9394 C65.6322,156.4844 73.8842,152.8494 82.9302,151.1844 C96.2022,148.7424 107.9952,152.1784 118.7082,159.9974 C121.1902,161.8094 123.7742,163.5674 125.9252,165.7334 C131.2512,171.0964 137.8652,173.3294 145.0862,174.4204 C149.1802,175.0384 153.2962,175.6554 157.2212,177.0444 C160.9262,178.3564 162.5762,180.5324 162.6512,183.9294 C162.7072,186.4264 161.1922,188.4784 158.8392,188.5494 C150.6852,188.7934 142.5352,189.3474 134.3692,188.8004 C126.4212,188.2674 119.1842,185.5684 112.3082,181.7374 C109.3152,180.0704 106.3722,178.3104 103.4172,176.5994 C104.0142,181.3224 109.8172,188.1794 115.3252,190.7094 C122.1242,193.8324 129.2882,195.2814 136.7362,195.4454 C144.2572,195.6104 151.7712,195.2994 159.2802,194.9874 C163.8292,194.7974 166.8312,192.2024 168.4292,188.0304 C170.1362,183.5804 169.6532,179.4604 166.2012,175.9384 C163.9022,173.5924 160.9472,172.3574 157.7672,171.2044 C163.5112,168.2184 169.0342,165.2224 174.6742,162.4644 C177.6782,160.9954 180.9432,160.4564 184.2672,161.4914 C185.7702,161.9584 187.0982,162.8494 187.3072,164.4864 C187.5032,166.0044 188.0962,165.5674 188.9312,165.1644 C191.4712,163.9384 194.0672,163.0114 196.9792,163.5834 C199.8702,164.1514 201.0352,165.3044 201.4492,168.3044 Z M43.1085,149.1238 C46.5065,148.4558 48.1285,149.8468 48.1285,153.3248 C48.1275,175.0878 48.1265,196.8518 48.1255,218.6148 C48.1255,221.5348 47.5425,222.3328 44.7695,223.3208 C29.8455,228.6388 14.9225,233.9598 0.0005,239.2798 L0.0005,157.6398 C14.3695,154.7988 28.7365,151.9498 43.1085,149.1238 Z M150.9924,112.9528 C164.3564,112.9358 175.2374,123.7708 175.2034,137.0618 C175.1694,150.2788 164.3444,161.0688 151.1024,161.0848 C137.8404,161.1018 127.1084,150.3658 127.0894,137.0648 C127.0714,123.7278 137.7364,112.9688 150.9924,112.9528 Z M115.3929,73.4214 C127.3729,73.3854 137.0299,82.9184 137.0679,94.8174 C137.1069,106.7224 127.4409,116.4124 115.5549,116.3874 C103.7249,116.3624 94.1169,106.7774 94.1029,94.9844 C94.0869,83.1274 103.6369,73.4564 115.3929,73.4214 Z M161.4466,52.7973 C172.1936,52.8843 181.0106,61.9143 180.8966,72.7153 C180.7786,83.7593 171.8376,92.4433 160.7036,92.3283 C149.9066,92.2153 141.2206,83.1203 141.3686,72.0783 C141.5116,61.3563 150.5176,52.7073 161.4466,52.7973 Z M131.4451,21.0002 C140.9441,20.9882 148.6581,28.6672 148.6701,38.1462 C148.6831,47.6382 140.9941,55.3602 131.5181,55.3722 C122.0231,55.3842 114.3161,47.7072 114.2981,38.2202 C114.2801,28.7272 121.9621,21.0122 131.4451,21.0002 Z M162.8184,143.0188 C163.1644,139.1298 161.4294,136.4188 157.4154,134.7338 C156.2384,134.2408 154.9854,133.9218 153.7594,133.5478 C151.8524,132.9658 149.8454,132.7298 148.0144,131.8818 C147.0784,131.4478 146.5294,130.7428 146.6034,129.6988 C146.6854,128.5608 147.3874,127.8678 148.4704,127.6408 C149.6644,127.3908 150.8784,127.3728 152.1004,127.4818 C153.7594,127.6288 155.2114,127.9918 155.6624,129.9218 C155.8464,130.7098 156.4204,131.0498 157.2674,131.0098 C158.3384,130.9578 159.4154,130.9578 160.4854,131.0108 C162.2424,131.0978 162.6254,130.2498 162.1404,128.7338 C161.0844,125.4188 158.7994,123.5078 155.4144,122.8848 C154.6404,122.7418 153.6184,122.7788 153.4994,121.8578 C153.3064,120.3758 152.4604,120.2478 151.2624,120.2278 C150.1174,120.2088 149.5704,120.6148 149.3904,121.7558 C149.2564,122.6018 148.4974,122.7158 147.7474,122.8428 C146.7694,123.0088 145.7794,123.2258 144.8614,123.5898 C141.6194,124.8758 139.7984,127.3138 139.7094,130.7898 C139.6234,134.0998 141.5094,136.2178 144.4144,137.5598 C146.1124,138.3438 147.9174,138.7528 149.7184,139.1918 C151.3104,139.5798 152.9394,139.8698 154.4084,140.6408 C155.4354,141.1798 156.0944,142.0158 155.9164,143.2348 C155.7544,144.3428 155.0174,144.9478 153.9294,145.2068 C152.1624,145.6268 150.4114,145.7618 148.6354,145.2418 C147.7564,144.9838 146.8734,144.5718 146.7814,143.6648 C146.5284,141.1378 144.9224,140.9858 143.3984,141.2448 C142.6224,141.2448 142.2644,141.2448 141.9074,141.2458 C139.3204,141.2478 138.9564,141.6598 139.6734,144.0988 C140.7324,147.6968 143.3044,149.6468 146.8914,150.2858 C148.2294,150.5238 149.2474,150.7918 149.1134,152.4768 C149.0314,153.5188 149.7694,153.7968 150.6714,153.7608 C151.4904,153.7278 152.7754,154.0298 152.7504,152.8858 C152.6944,150.4188 154.3274,150.5338 155.9664,150.2038 C160.0554,149.3798 162.4864,146.7378 162.8184,143.0188 Z M122.0449,107.7444 C123.9069,107.2154 124.2649,106.3394 123.8339,104.4754 C123.3859,102.5324 122.3789,102.7694 121.0219,103.1024 C120.1969,103.3054 119.3269,103.4454 118.4829,103.4194 C115.1889,103.3194 112.9209,101.4234 112.4619,98.3334 C115.1869,98.3334 117.8899,98.3124 120.5909,98.3454 C121.5159,98.3574 122.0759,98.1954 122.0459,97.0724 C122.0169,96.0044 121.5129,95.7464 120.5669,95.7594 C118.0659,95.7914 115.5619,95.7854 113.0599,95.7644 C112.4859,95.7594 111.7369,96.0334 111.7049,94.9454 C111.6729,93.8744 112.3679,94.0524 112.9849,94.0504 C115.4879,94.0424 117.9929,93.9934 120.4929,94.0674 C121.8009,94.1064 122.0709,93.4704 122.0439,92.3624 C122.0189,91.3234 121.8899,90.5434 120.5349,90.5904 C118.5359,90.6594 116.5299,90.6474 114.5299,90.5844 C113.8879,90.5634 112.9389,91.0584 112.6469,90.2134 C112.4199,89.5564 113.0699,88.8854 113.5259,88.3564 C115.7109,85.8304 118.4909,85.8484 121.3929,86.6584 C122.8869,87.0754 123.2799,86.2694 123.5129,85.0644 C123.7349,83.9104 124.4829,82.6064 122.6409,82.1214 C116.8629,80.6014 109.9449,81.4114 106.7469,88.8974 C106.3029,89.9364 106.0549,90.8074 104.5839,90.6734 C103.6129,90.5854 103.1429,91.4334 103.1249,92.4234 C103.1079,93.3724 103.6049,93.9054 104.5009,94.0154 C105.1419,94.0934 105.7749,93.9604 105.7319,94.9854 C105.6919,95.9104 105.1089,95.7454 104.5609,95.7814 C103.6369,95.8414 103.0889,96.2754 103.1419,97.2674 C103.1939,98.2714 103.9319,98.3564 104.6719,98.3294 C105.5279,98.2984 105.9679,98.4334 106.2739,99.4664 C108.3139,106.3524 114.9739,109.7554 122.0449,107.7444 Z M166.8896,82.8913 C169.0016,82.9253 168.2976,81.4073 168.4376,80.3323 C168.5916,79.1493 168.3216,78.4713 166.8686,78.5443 C164.6166,78.6593 162.3526,78.5753 159.6626,78.5753 C160.6606,77.5383 161.4986,76.6913 161.4776,75.6553 C161.4336,73.5593 162.5096,73.1923 164.2506,73.4023 C164.8406,73.4733 165.6946,73.6353 165.8016,72.7303 C165.8976,71.9173 166.1926,70.9463 165.4496,70.2953 C164.7446,69.6793 163.7856,69.9433 162.9686,70.0163 C161.5786,70.1403 161.0836,69.6383 161.0386,68.2543 C160.9456,65.3473 161.8976,64.4353 165.4106,64.8373 C167.2826,65.0513 167.0636,63.7763 167.3866,62.7703 C167.7996,61.4873 167.0486,61.1743 166.0006,60.9413 C160.8846,59.8043 155.5846,62.5453 156.4296,68.6843 C156.5386,69.4833 156.5496,70.0963 155.4396,70.0023 C153.8376,69.8673 153.8466,70.9683 153.8216,72.1243 C153.7876,73.6243 154.8236,73.5153 155.7216,73.3973 C157.1936,73.2043 157.3966,73.9443 157.2716,75.1323 C157.0756,76.9893 156.0636,78.3153 154.5696,79.2893 C153.3606,80.0793 153.8096,81.2073 153.9586,82.1833 C154.1096,83.1593 155.0706,82.8633 155.7396,82.8663 C159.4556,82.8853 163.1736,82.8323 166.8896,82.8913 Z M139.6201,29.5002 C139.8971,29.0312 140.3501,28.5282 139.6381,28.0272 C138.5101,27.2372 135.2981,28.1132 134.7241,29.3952 C133.7391,31.6002 132.7801,33.8182 131.6911,36.3012 C130.8071,34.2412 130.0511,32.4212 129.2491,30.6232 C127.9231,27.6462 127.6801,27.5522 124.4481,27.8552 C123.3191,27.9612 123.0291,28.3752 123.5761,29.3472 C124.4841,30.9632 125.4101,32.5712 126.3331,34.1792 C127.8811,36.8772 127.8491,36.9672 124.8971,37.3172 C124.2831,37.3902 123.7231,37.4292 123.7711,38.2402 C123.8101,38.8962 124.2811,39.0312 124.8221,39.0362 C125.6801,39.0432 126.5391,39.0692 127.3941,39.0282 C128.3111,38.9852 128.9031,39.1902 128.9181,40.2872 C128.9311,41.3292 128.4751,41.6952 127.4901,41.6302 C126.8501,41.5872 126.2021,41.5902 125.5621,41.6352 C124.8361,41.6852 123.7721,41.3802 123.8101,42.6022 C123.8451,43.7432 124.8671,43.3012 125.4801,43.3232 C128.9091,43.4442 128.9101,43.4242 128.9091,46.7622 C128.9091,47.0482 128.9141,47.3342 128.9051,47.6202 C128.8501,49.2802 129.9391,49.4312 131.1971,49.3592 C132.4111,49.2902 133.9321,49.7882 134.0641,47.7562 C134.1521,46.4122 133.5301,44.8042 134.3521,43.7872 C135.2431,42.6862 136.9071,43.5242 138.2191,43.3502 C138.7541,43.2782 139.2241,43.2342 139.2001,42.5332 C139.1791,41.8992 138.7831,41.6562 138.2231,41.6432 C137.1511,41.6162 136.0791,41.6292 135.0081,41.6112 C134.2661,41.5992 134.0401,41.1372 134.0561,40.4752 C134.0711,39.8152 134.0531,39.1102 134.9621,39.0622 C135.8171,39.0162 136.6781,39.0752 137.5331,39.0342 C138.1891,39.0022 139.1331,39.3092 139.1771,38.2122 C139.2231,37.0652 138.2651,37.3852 137.6101,37.3392 C135.6031,37.1962 135.3311,36.7432 136.3291,35.0142 C137.3991,33.1602 138.5311,31.3432 139.6201,29.5002 Z"></path>
                    </g>
                </g>
            </g>
        </g>
    </g>
</svg>