<?xml version="1.0" encoding="UTF-8"?>
<svg width="60px" height="60px" viewBox="0 0 60 60" version="1.1" xmlns="http://www.w3.org/2000/svg" xmlns:xlink="http://www.w3.org/1999/xlink">
    <!-- Generator: sketchtool 49 (51002) - http://www.bohemiancoding.com/sketch -->
    <title>1A6B9C4B-A54F-4B7E-AB7F-FA4202DCDE22</title>
    <desc>Created with sketchtool.</desc>
    <defs></defs>
    <g id="Hi-Fi" stroke="none" stroke-width="1" fill="none" fill-rule="evenodd">
        <g id="Page-Footer" transform="translate(-1170.000000, -80.000000)" fill="#FFFFFF">
            <g id="Footer">
                <g id="Icons" transform="translate(1080.000000, 80.000000)">
                    <path d="M120.0006,0.0003 C103.4316,0.0003 90.0006,13.4313 90.0006,30.0003 C90.0006,46.5693 103.4316,60.0003 120.0006,60.0003 C136.5681,60.0003 150.0006,46.5693 150.0006,30.0003 C150.0006,13.4313 136.5681,0.0003 120.0006,0.0003 Z M137.6601,31.3008 L131.8476,34.6293 L127.0896,29.9178 L131.8476,25.1838 C133.5111,26.1498 137.1891,28.2918 137.6841,28.5588 C138.2526,28.8633 138.5886,29.3613 138.5976,29.8953 C138.6036,30.2163 138.4866,30.8238 137.6601,31.3008 Z M124.1136,39.1053 C124.1136,39.1053 111.1371,46.6083 110.4966,46.9803 C110.2206,47.1423 109.9251,47.2008 109.6521,47.2143 L126.0351,30.9723 L130.5111,35.4258 L124.1136,39.1053 Z M108.1986,45.7383 L108.1986,14.4018 C108.1986,14.0568 108.2871,13.7493 108.4341,13.4883 L124.9566,29.9178 L108.3396,46.4178 C108.2526,46.2153 108.1986,45.9903 108.1986,45.7383 Z M110.8011,13.0428 L130.4886,24.4098 L126.0351,28.8633 L109.7931,12.7383 C110.1216,12.7473 110.4726,12.8523 110.8011,13.0428 Z" id="Play-Store"></path>
                </g>
            </g>
        </g>
    </g>
</svg>